<svg id="Capa_1" data-name="Capa 1" xmlns="http://www.w3.org/2000/svg" viewBox="0 0 1196.13 332.75"><defs><style>.cls-1{fill:#147d6e;}.cls-2{fill:#42351a;}.cls-3{fill:#073f34;}</style></defs><path class="cls-1" d="M68.19,14H85.8V133q0,27.44-4.25,38.15a35.59,35.59,0,0,1-14.2,17.13q-9.94,6.4-24.07,6.41a56.16,56.16,0,0,1-21-4.13Q11.9,186.43-.68,176l9.34-14q13.8,9.71,22.93,13.66a29.22,29.22,0,0,0,11.76,2.63,22.59,22.59,0,0,0,13.74-4.55,23.8,23.8,0,0,0,8.64-12.1q2.46-7.55,2.46-29.23Z" transform="translate(0.68 -3.59)"/><path class="cls-1" d="M255.78,59.92V190.25H239.25v-22.4a71.9,71.9,0,0,1-23.66,19.29,64,64,0,0,1-28.69,6.46q-27.68,0-47.25-20.06t-19.59-48.81q0-28.16,19.77-48.16t47.55-20a61.42,61.42,0,0,1,29.05,6.83q13,6.83,22.82,20.48v-24Zm-67,12.82a50.59,50.59,0,0,0-44.69,26.2,52.8,52.8,0,0,0,.06,52.65,51.38,51.38,0,0,0,19,19.56,49.53,49.53,0,0,0,25.55,7,52.31,52.31,0,0,0,26.08-6.94,48.59,48.59,0,0,0,19-18.78,53.69,53.69,0,0,0,6.64-26.68q0-22.62-14.9-37.82T188.76,72.74Z" transform="translate(0.68 -3.59)"/><path class="cls-1" d="M293.39,59.92h16.77V82.44q8.76-12.45,18-18.21a51,51,0,0,1,26.75-7.66,44.56,44.56,0,0,1,18,3.71,38.65,38.65,0,0,1,13.91,9.88q5.4,6.18,9.36,17.67,8.36-15.33,20.91-23.3a49.49,49.49,0,0,1,27-8,42.2,42.2,0,0,1,23.84,6.83,40.75,40.75,0,0,1,15.36,19q5,12.23,5,36.66v71.15H471.16V119.1q0-21-3-28.81A25.92,25.92,0,0,0,458,77.65a30.49,30.49,0,0,0-17.25-4.79,37.48,37.48,0,0,0-22.27,7.19A41.36,41.36,0,0,0,403.7,99.21q-4.67,12-4.66,40v51H382.27V123.53q0-23.59-2.93-32A26.81,26.81,0,0,0,369.1,78a29.66,29.66,0,0,0-17.37-5.09,37.49,37.49,0,0,0-21.74,7,41.53,41.53,0,0,0-15,18.86q-4.85,11.86-4.85,36.3v55.22H293.39Z" transform="translate(0.68 -3.59)"/><path class="cls-2" d="M526.86,14H561.6q21,0,32.22,5a39.52,39.52,0,0,1,17.79,15.28,41.87,41.87,0,0,1,6.52,22.88,41.16,41.16,0,0,1-5.71,21.38,42.39,42.39,0,0,1-16.81,15.63q13.73,4.68,21.14,11a44,44,0,0,1,11.52,15.21,45.55,45.55,0,0,1,4.12,19.35,47.52,47.52,0,0,1-15.51,35.88q-15.52,14.67-41.63,14.67H526.86Zm17.25,17.25V87.71h10.08q18.38,0,27-3.41a29.21,29.21,0,0,0,13.69-10.78,28.31,28.31,0,0,0,5-16.35q0-12.11-8.46-19t-27-6.89Zm0,74.15V173H566q19.32,0,28.31-3.77a32.28,32.28,0,0,0,14.47-11.8,30.83,30.83,0,0,0-2.22-37.85q-7.68-8.74-21.11-12-9-2.16-31.33-2.16Z" transform="translate(0.68 -3.59)"/><path class="cls-2" d="M726.18,56.57q30.12,0,49.92,21.8,18,19.89,18,47.08t-19,47.73q-19,20.43-48.9,20.42t-49-20.42q-19-20.42-19-47.73,0-27.08,18-47Q695.94,56.56,726.18,56.57ZM726.12,73q-20.91,0-35.94,15.45t-15,37.37A53,53,0,0,0,682,152.16,48.45,48.45,0,0,0,700.52,171a52.62,52.62,0,0,0,51.21,0,48.58,48.58,0,0,0,18.51-18.86,53,53,0,0,0,6.85-26.36q0-21.92-15.08-37.37T726.12,73Z" transform="translate(0.68 -3.59)"/><path class="cls-2" d="M886.82,56.57q30.12,0,49.91,21.8,18,19.89,18,47.08t-19,47.73q-19,20.43-48.89,20.42t-49-20.42q-19-20.42-19-47.73,0-27.08,18-47Q856.57,56.56,886.82,56.57ZM886.75,73q-20.91,0-35.94,15.45t-15,37.37a53,53,0,0,0,6.86,26.36A48.52,48.52,0,0,0,861.15,171a52.62,52.62,0,0,0,51.21,0,48.58,48.58,0,0,0,18.51-18.86,53,53,0,0,0,6.85-26.36q0-21.92-15.08-37.37T886.75,73Z" transform="translate(0.68 -3.59)"/><path class="cls-2" d="M985.64,9.61h16.77V112.52l60.42-52.6h24.62l-71.62,62.17,75.82,68.16h-23.6l-65.64-58.68v58.68H985.64Z" transform="translate(0.68 -3.59)"/><path class="cls-3" d="M947.58,246.44s75.41-22.56,198.86,17.8l-.37-242h16.73l.37,264.4S1060.22,239.46,947.58,246.44Z" transform="translate(0.68 -3.59)"/><path class="cls-2" d="M964.75,252.46s72.75-7.1,214.38,55.11l-.42-266.8,16.73,0V336.34S1035.79,258.43,964.75,252.46Z" transform="translate(0.68 -3.59)"/><path class="cls-1" d="M927.42,245.36s82.77-32.92,202.74,0V3.59h-16.72V225.66S1000.59,201.26,927.42,245.36Z" transform="translate(0.68 -3.59)"/></svg>